<?xml version="1.0" standalone="no"?>
<!DOCTYPE svg PUBLIC "-//W3C//DTD SVG 20010904//EN"
 "http://www.w3.org/TR/2001/REC-SVG-20010904/DTD/svg10.dtd">
<svg version="1.0" xmlns="http://www.w3.org/2000/svg"
 width="512.000000pt" height="512.000000pt" viewBox="0 0 512.000000 512.000000"
 preserveAspectRatio="xMidYMid meet">
<metadata>
Created by potrace 1.14, written by Peter Selinger 2001-2017
</metadata>
<g transform="translate(0.000000,512.000000) scale(0.100000,-0.100000)"
fill="#000000" stroke="none">
<path d="M2729 4929 c-166 -165 -269 -276 -404 -434 -33 -38 -62 -72 -65 -75
-16 -16 -118 -141 -229 -279 -230 -288 -456 -613 -601 -861 -64 -111 -220
-411 -220 -424 0 -3 -12 -31 -26 -62 -38 -84 -108 -269 -134 -354 -12 -41 -29
-95 -37 -120 -15 -47 -47 -196 -57 -265 -20 -135 -23 -182 -24 -309 0 -139 13
-294 32 -391 54 -264 139 -475 269 -667 77 -113 92 -132 187 -229 238 -241
558 -394 915 -436 88 -10 348 -10 438 0 211 23 464 108 640 213 78 47 228 160
287 216 140 134 276 324 362 504 48 103 123 312 115 320 -2 2 -17 -26 -33 -63
-119 -280 -315 -523 -549 -678 -149 -99 -357 -188 -512 -221 -6 -1 -33 -7 -60
-12 -78 -17 -189 -26 -318 -27 -177 0 -300 16 -455 60 -30 8 -64 17 -76 20
-60 14 -326 134 -344 156 -3 3 -16 12 -30 19 -47 25 -169 119 -241 187 -169
160 -293 354 -367 578 -22 66 -46 149 -52 185 -7 36 -14 76 -17 90 -12 61 -10
400 2 490 45 313 136 584 321 950 113 223 221 397 396 632 113 153 320 407
331 408 5 0 -3 -15 -18 -32 -22 -28 -137 -175 -178 -229 -112 -146 -276 -411
-371 -599 -32 -63 -62 -119 -66 -125 -14 -19 -77 -170 -115 -274 -47 -132 -75
-232 -75 -270 0 -34 30 -61 70 -61 40 0 45 -10 48 -90 2 -41 5 -77 8 -79 10
-10 391 -4 425 8 59 19 96 64 112 134 19 89 15 153 -11 178 -46 42 -21 79 56
81 43 2 52 6 54 23 2 15 12 21 41 23 l37 3 0 129 c0 113 -2 129 -16 123 -8 -3
-26 0 -40 8 -20 10 -38 11 -102 0 -42 -7 -89 -15 -104 -18 -15 -2 -36 1 -48 7
-65 35 -64 186 2 221 20 11 64 9 148 -7 54 -11 177 -2 206 14 8 5 41 5 72 0
116 -16 209 -19 295 -7 85 12 89 11 109 -9 41 -40 33 -188 -10 -211 -18 -10
-55 -8 -137 4 -27 5 -59 8 -70 7 -74 -3 -105 -8 -109 -18 -2 -6 -4 -64 -5
-128 l0 -116 34 0 c32 0 50 -12 50 -35 0 -5 23 -10 51 -11 64 -1 74 -7 74 -48
0 -25 -5 -35 -19 -39 -17 -4 -19 -14 -17 -93 2 -102 24 -160 70 -182 15 -8 78
-27 141 -42 198 -50 295 -112 400 -255 73 -100 142 -259 159 -367 l6 -36 -48
-11 c-68 -15 -284 -52 -287 -49 -1 2 -7 28 -13 58 -26 117 -104 243 -178 286
-64 38 -123 35 -227 -12 -205 -91 -196 -88 -292 -88 -76 1 -107 6 -200 38
-144 48 -212 57 -432 56 l-183 -2 0 -78 0 -78 -34 0 c-118 0 -138 -64 -77
-242 127 -369 409 -651 791 -793 102 -38 188 -62 260 -72 25 -4 70 -11 100
-15 56 -9 368 -6 406 3 12 3 39 8 60 11 173 28 393 117 553 224 110 73 280
243 353 353 73 109 145 261 194 409 21 63 39 117 39 120 1 3 8 39 18 80 22
100 26 125 33 195 13 126 5 312 -15 383 -5 18 -10 36 -11 40 -8 54 -52 176
-91 254 -108 215 -257 386 -673 773 -181 168 -248 236 -339 344 -201 238 -250
375 -242 676 2 83 6 161 9 175 3 14 7 41 10 60 3 19 9 55 15 80 6 25 13 59 17
75 10 50 43 154 54 176 33 60 -13 25 -171 -132z m455 -3592 c19 -29 48 -68 65
-87 108 -122 101 -292 -17 -373 -49 -35 -85 -45 -143 -42 -112 7 -205 100
-210 211 -3 83 25 147 102 234 45 50 74 105 99 183 l22 69 24 -72 c14 -39 40
-95 58 -123z m319 18 c19 -8 47 -16 62 -19 63 -12 106 -61 107 -125 1 -72 -51
-121 -124 -116 -78 4 -119 62 -118 167 1 60 0 73 -16 127 l-7 25 31 -22 c17
-13 46 -29 65 -37z"/>
</g>
</svg>
